<?xml version="1.0" standalone="no"?>
<!DOCTYPE svg PUBLIC "-//W3C//DTD SVG 20010904//EN"
 "http://www.w3.org/TR/2001/REC-SVG-20010904/DTD/svg10.dtd">
<svg version="1.0" xmlns="http://www.w3.org/2000/svg"
 width="450.000000pt" height="450.000000pt" viewBox="0 0 450.000000 450.000000"
 preserveAspectRatio="xMidYMid meet">
<metadata>
Created by potrace 1.16, written by Peter Selinger 2001-2019
</metadata>
<g transform="translate(0.000000,450.000000) scale(0.100000,-0.100000)"
fill="#000000" stroke="none">
<path d="M1958 2754 l-288 -166 0 -129 0 -129 -90 0 -90 0 -2 193 -3 192 -72
3 -73 3 0 -471 0 -471 73 3 72 3 3 193 2 192 90 0 90 0 0 -129 0 -128 290
-168 c159 -91 293 -165 297 -162 5 2 135 77 291 167 l282 163 0 128 0 129 90
0 90 0 2 -192 3 -193 73 -3 72 -3 0 471 0 471 -72 -3 -73 -3 -3 -192 -2 -193
-410 0 -410 0 0 -80 0 -80 240 0 240 0 0 -82 0 -83 -204 -117 c-112 -65 -209
-118 -215 -118 -7 0 -104 53 -216 118 l-205 117 0 245 0 245 205 118 c112 64
209 117 216 117 6 0 103 -53 215 -117 l204 -118 0 -42 0 -43 80 0 80 0 0 89 0
88 -278 161 c-153 89 -285 164 -293 166 -8 3 -143 -69 -301 -160z"/>
<path d="M1130 2250 l0 -390 75 0 75 0 0 390 0 390 -75 0 -75 0 0 -390z"/>
<path d="M3220 2250 l0 -390 75 0 75 0 0 390 0 390 -75 0 -75 0 0 -390z"/>
<path d="M925 2578 c-3 -7 -4 -159 -3 -338 l3 -325 70 0 70 0 0 335 0 335 -68
3 c-48 2 -69 -1 -72 -10z"/>
<path d="M3435 2578 c-3 -7 -4 -159 -3 -338 l3 -325 70 0 70 0 0 335 0 335
-68 3 c-48 2 -69 -1 -72 -10z"/>
</g>
</svg>
